<svg xmlns="http://www.w3.org/2000/svg" version="1.1" xmlns:xlink="http://www.w3.org/1999/xlink" xmlns:svgjs="http://svgjs.dev/svgjs" width="1500" height="1687" viewBox="0 0 1500 1687"><g transform="matrix(1,0,0,1,0.00011015625000254659,0)"><svg viewBox="0 0 320 360" data-background-color="#636365" preserveAspectRatio="xMidYMid meet" height="1687" width="1500" xmlns="http://www.w3.org/2000/svg" xmlns:xlink="http://www.w3.org/1999/xlink"><g id="tight-bounds" transform="matrix(1,0,0,1,0.000023499999997511622,0)"><svg viewBox="0 0 320 360" height="360" width="320"><g><svg></svg></g><g><svg viewBox="0 0 320 360" height="360" width="320"><g><path transform="translate(-74.99272,-51.79039) scale(4.65793,4.65793)" d="M20.6 59.9l0.8 1-0.4-1.3c-0.1-0.6-0.8 0.1-0.4 0.3M21.5 59.3c0.3 0.5 0.6 1 0.6 1.5 0 0.7 0.6 1 1.1 1.2-0.7-0.8-1.1-3-1.7-2.7M59.9 16.9c1.7 0 3.3-0.2 5.1 0.2 4.4 1.1 8.1 3.3 10.6 6.4l7 11.2c0.3 2.8 0.9 5.9 0.8 9.3 0.7 0 0.6-1 1.4-1.2-0.8 2-1.2 4.5-1.4 7.4-0.5-1.6 0-4 0.1-5.3-0.7 1.1-1.1 0.3-1.1-0.2 0.1-0.8-0.3-0.7-0.6-1-1.1-1-1.8-2.1-2.6-3.8 0.5-1.3 0.6-3.2-1-4.2-0.5-0.3-1.1-0.8-1.4-1.6-0.4-1.1-1.1-2.4-0.9-4.1 0.1-0.5-1.5 1.1-2.4 0.4-3.9-2.7-7.8-5.8-12.5-8.4-2.5 0-4.3-0.9-5.2-2-0.8-1-0.2-2.3 1-2.4 0.7 0 1.5-0.2 2.1 0.2 0.1-0.4 0.5-0.9 1-0.9M50 14.6l0.2 0.1c1 0.2 1.5 1.6 2.6 1.1 0 0.7 0.1 1.4-0.1 1.9-0.3 0.8-1.2 0.8-1.9 0.8-6.7-0.4-10.6 2.4-14.7 4.8-1.1 0.7-2.3 1.2-3.2 2.1-4.3 4-9 7.7-10.1 15.1l-0.9 8.2c-0.1 0.9-1.1 1.8-0.9 2.9l0.7 4.9c-0.7-0.7-1.1 0.2-0.9 0.6 0.1 0.3 0.5 1.3 1.1 0.4 0.8 1.5 1.6 4.4 2.7 5.7 3.4 4 7.8 7.6 11.4 11.2 0.9-0.2 1.6-0.2 1.8-0.8 0.3 0.6-0.3 1.2-0.8 1.3 1.6 1 3.4 1.9 5.8 2.1 3.1 0.2 6 0.7 8.7 1.4 1.4-0.4 2.8-0.6 4.3-0.7 0.5 0 0.8-0.8 1.4-1l0.1-1c0.6 0.9 0.5-0.3 0.1-0.9 0.7 0.6 0.9 1.1 1.2 1.5 0-0.3 0.8-1.4 0.8-0.1l0.2-1.3c0.3-0.2 0.4 1.1 0.7 0.2 0.3-0.9 0.9-0.2 1.5-0.5-0.2 0.4-0.1 1.2 0.6 0.7l0.8-0.7c0.5 1.2 1.3 0.7 1.7 0.5 4.4-2.8 8.8-6.1 13-9.4l-0.1 1.3 0.5-1.6c0.5 0.5 0.9 0.1 1.1-0.2 0.6-1 1.4-2 2.7-2.9-1.6 4.3-3.5 7.7-5.9 10.5l-1 1.2c0 0.7-0.2 1.6-1 1.7-0.4 0.1-1.2-0.2-1.8 0.4-0.3 0.4 0.7 1.2-0.1 0.6-0.7-0.5-1.4 0-2.2 0.2-0.6 0.2 0.4 0.8 0.6 1.2 0.2 0.4 0.4 0.8 0.3 1.3l-1.1-1.2c-1.3 0.7-2.1 2-3.2 3-0.5 0.4-0.3 1.1-0.3 1.7-0.7 0-1.5-0.2-1.9 0.2-0.3 0.4-0.2 1-0.2 1.6-1-0.1-1.1-1.6-2-1.3-0.9 0.2-1.9 0.3-2.7 0.8 0.6 1.2-1 0.5-0.8 0.7-1.5-0.9-2.8-1.6-4.4-1-3.4-1.1-7.6-0.6-10.7-0.2 0-0.5 0.1-1-0.1-1.1-0.2 0.5-0.8 0.3-0.7 0.3-1.9-1.3-3.8-2.1-5.8-3.2-1.8 0.2-3.5-0.7-4-1.2-1.4-1.3-3-0.6-4.3-0.9-2.8-0.7-3.8-3.6-4.1-5.6-0.2-1-1-1.4-1.3-1.3-1.3-4.2-3.3-8-4.9-11.9-0.4-1-0.3-2-0.3-3.1 0.5 0.2 1 0.1 0.9-0.6-0.5-3.3-1.7-5.8-3-8.2 0.7-3.4 0.8-7.4 2.4-10.4 1.4-2.7 4-4.1 5.8-6.4 0.6-0.8 0.6-1.9 1.2-2.6 2-2 4-4.1 6.2-5.9 1-0.8 2.2 0 3.7-0.3 0.5-1.8 2.5-3.4 4.4-2.9 0.8 0.2 2.4-1.9 2.9-2.1 0.8-0.3 0.4 0.8 0.4 1.5 1.9-1.5 4.5-2.3 6.9-3.2" fill="#ffffff" fill-rule="nonzero" stroke="none" stroke-width="1" stroke-linecap="butt" stroke-linejoin="miter" stroke-miterlimit="10" stroke-dasharray="" stroke-dashoffset="0" font-family="none" font-weight="none" font-size="none" text-anchor="none" style="mix-blend-mode: normal" data-fill-palette-color="tertiary"></path></g><g transform="matrix(1,0,0,1,86.40867612902339,90)"><svg viewBox="0 0 147.18264774195322 180" height="180" width="147.18264774195322"><g><svg viewBox="0 0 147.18264774195322 180" height="180" width="147.18264774195322"><g><svg viewBox="0 0 191.99999999999997 234.81028864619987" height="180" width="147.18264774195322"><g transform="matrix(1,0,0,1,0,140.00066063744714)"><svg viewBox="0 0 191.99999999999997 94.80962800875274" height="94.80962800875274" width="191.99999999999997"><g id="textblocktransform"><svg viewBox="0 0 191.99999999999997 94.80962800875274" height="94.80962800875274" width="191.99999999999997" id="textblock"><g><svg viewBox="0 0 191.99999999999997 94.80962800875274" height="94.80962800875274" width="191.99999999999997"><g transform="matrix(1,0,0,1,0,0)"><svg width="191.99999999999997" viewBox="2.25 -33.45 68.55 33.85" height="94.80962800875274" data-palette-color="#ffffff"><path d="M6.7-33.45L12.5-33.45 8.5-12.95Q8.2-11.3 8.2-10L8.2-10Q8.2-6.95 9.73-5.33 11.25-3.7 13.95-3.7L13.95-3.7Q15.6-3.7 16.9-4.38 18.2-5.05 19.23-6.28 20.25-7.5 20.95-9.2 21.65-10.9 22.05-12.95L22.05-12.95 26.05-33.45 31.85-33.45 27.8-12.5Q27.3-9.9 26.2-7.55 25.1-5.2 23.25-3.45 21.4-1.7 18.75-0.65 16.1 0.4 12.5 0.4L12.5 0.4Q9.7 0.4 7.75-0.3 5.8-1 4.58-2.25 3.35-3.5 2.8-5.2 2.25-6.9 2.25-8.85L2.25-8.85Q2.25-10.5 2.65-12.5L2.65-12.5 6.7-33.45ZM61.15 0L63.05-12.75Q63.15-13.5 63.35-14.58 63.55-15.65 63.8-16.93 64.05-18.2 64.32-19.6 64.6-21 64.85-22.3L64.85-22.3Q64.15-21 63.42-19.58 62.7-18.15 61.97-16.88 61.25-15.6 60.65-14.55 60.05-13.5 59.7-12.9L59.7-12.9 51.9 0 47.85 0 45-12.75Q44.85-13.4 44.65-14.48 44.45-15.55 44.2-16.82 43.95-18.1 43.7-19.53 43.45-20.95 43.2-22.25L43.2-22.25Q43-20.9 42.8-19.48 42.6-18.05 42.42-16.78 42.25-15.5 42.07-14.48 41.9-13.45 41.75-12.9L41.75-12.9 38.9 0.15 33.1-0.7 41.15-33.45 45.85-33.45 50-12.8Q50.25-11.5 50.5-10.05 50.75-8.6 50.95-7.15L50.95-7.15Q51.7-8.55 52.45-10 53.2-11.45 54-12.8L54-12.8 66.15-33.45 70.8-33.45 67.05 0 61.15 0Z" opacity="1" transform="matrix(1,0,0,1,0,0)" fill="#ffffff" class="wordmark-text-0" data-fill-palette-color="primary" id="text-0"></path></svg></g></svg></g></svg></g></svg></g><g transform="matrix(1,0,0,1,36.67199999999999,0)"><svg viewBox="0 0 118.65599999999999 126.16566047989791" height="126.16566047989791" width="118.65599999999999"><g><svg xmlns="http://www.w3.org/2000/svg" xmlns:xlink="http://www.w3.org/1999/xlink" version="1.1" x="0" y="0" viewBox="7.679000000000003 5 84.643 90" enable-background="new 0 0 100 100" xml:space="preserve" height="126.16566047989791" width="118.65599999999999" class="icon-icon-0" data-fill-palette-color="accent" id="icon-0"><g fill="#ffffff" data-fill-palette-color="accent"><circle cx="60.488" cy="90.333" r="4.7" fill="#ffffff" data-fill-palette-color="accent"></circle><circle cx="79.361" cy="90.333" r="4.7" fill="#ffffff" data-fill-palette-color="accent"></circle><path d="M92.309 61.193c-0.004-0.109-0.016-0.217-0.031-0.324-0.016-0.092-0.029-0.182-0.053-0.271-0.023-0.097-0.055-0.188-0.088-0.281-0.031-0.092-0.066-0.182-0.107-0.271-0.039-0.086-0.086-0.168-0.135-0.252-0.049-0.082-0.1-0.161-0.156-0.239-0.057-0.08-0.121-0.151-0.186-0.228-0.063-0.069-0.125-0.137-0.193-0.201-0.072-0.065-0.148-0.127-0.227-0.188-0.078-0.059-0.156-0.115-0.24-0.168-0.078-0.047-0.16-0.09-0.244-0.133-0.096-0.047-0.195-0.092-0.297-0.129-0.039-0.014-0.074-0.037-0.115-0.049-0.047-0.016-0.096-0.019-0.145-0.031-0.102-0.027-0.205-0.051-0.313-0.066-0.104-0.016-0.201-0.025-0.301-0.029-0.055-0.004-0.105-0.017-0.156-0.017H56.045l-1.113-6.534c-0.004-0.017-0.01-0.029-0.014-0.045-0.021-0.121-0.061-0.234-0.096-0.35-0.023-0.076-0.041-0.152-0.07-0.225-0.045-0.113-0.105-0.217-0.164-0.322-0.035-0.064-0.064-0.133-0.105-0.194-0.072-0.109-0.158-0.21-0.244-0.31-0.039-0.045-0.072-0.094-0.113-0.137-0.104-0.107-0.219-0.2-0.338-0.291-0.033-0.025-0.061-0.056-0.096-0.078-0.121-0.085-0.252-0.154-0.385-0.221-0.041-0.021-0.078-0.047-0.117-0.064-0.115-0.051-0.236-0.085-0.357-0.121-0.068-0.021-0.137-0.049-0.207-0.063-0.096-0.021-0.193-0.027-0.295-0.039-0.104-0.014-0.203-0.029-0.307-0.031-0.018 0-0.033-0.005-0.049-0.005h-6.807L32.627 34.615l-0.283-3.835c0-3.946-3.424-7.146-7.646-7.146h-0.383c-4.224 0-7.646 3.198-7.646 7.146l-0.283 3.848L15.47 47.04l-3.096 24.862h4.637v0.262l-2.69 18.809c-0.189 2.027 1.299 3.822 3.326 4.012C17.761 94.996 17.878 95 17.992 95c1.881 0 3.486-1.432 3.664-3.34l2.604-17.893h0.488l2.604 17.893c0.18 1.908 1.785 3.34 3.664 3.34 0.114 0 0.229-0.004 0.348-0.016 2.025-0.189 3.514-1.984 3.326-4.012L32 72.162v-0.26h4.638l-3.097-24.878 6.369 7.452c0.73 0.854 1.764 1.291 2.803 1.291 0.658 0 1.314-0.182 1.901-0.536 0.176 0.032 0.356 0.056 0.542 0.056h4.287l4.576 26.836c0.002 0.019 0.01 0.031 0.012 0.049 0.016 0.082 0.043 0.16 0.063 0.242 0.029 0.104 0.059 0.207 0.098 0.306 0.027 0.073 0.063 0.146 0.1 0.215 0.049 0.099 0.098 0.192 0.154 0.285 0.041 0.063 0.086 0.125 0.131 0.187 0.066 0.088 0.135 0.172 0.209 0.252 0.051 0.055 0.104 0.106 0.16 0.159 0.078 0.072 0.162 0.14 0.248 0.203 0.061 0.047 0.123 0.093 0.188 0.134 0.094 0.059 0.189 0.106 0.285 0.153 0.068 0.032 0.133 0.067 0.203 0.099 0.115 0.045 0.236 0.077 0.355 0.108 0.061 0.017 0.115 0.037 0.176 0.049 0.186 0.035 0.375 0.058 0.57 0.058 0.002 0 0.004 0 0.006 0h25.834c0.004 0 0.008 0.002 0.012 0.002 0.188 0 0.369-0.023 0.551-0.058 0.055-0.012 0.107-0.026 0.162-0.039 0.121-0.03 0.238-0.065 0.355-0.11 0.061-0.023 0.119-0.047 0.178-0.072 0.113-0.053 0.221-0.113 0.326-0.178 0.045-0.027 0.092-0.053 0.135-0.082 0.146-0.103 0.283-0.213 0.41-0.338 0.01-0.01 0.016-0.021 0.023-0.027 0.115-0.117 0.219-0.244 0.314-0.381 0.033-0.047 0.061-0.098 0.09-0.146 0.063-0.102 0.121-0.205 0.172-0.316 0.029-0.063 0.057-0.129 0.082-0.196 0.018-0.048 0.043-0.093 0.059-0.144l6.5-20.301c0.016-0.051 0.018-0.1 0.031-0.148 0.025-0.1 0.049-0.2 0.064-0.305s0.023-0.209 0.031-0.313c0.002-0.052 0.016-0.099 0.016-0.147C92.322 61.275 92.311 61.236 92.309 61.193z" fill="#ffffff" data-fill-palette-color="accent"></path><path d="M17.367 10.707c-0.231 0.752-0.357 1.551-0.357 2.379 0 4.465 3.621 8.085 8.087 8.085 4.465 0 8.086-3.62 8.086-8.085C33.183 8.62 29.562 5 25.097 5c-2.632 0-4.962 1.262-6.438 3.208-1.237-0.897-3.81-2.163-6.084 0.622 0 0-1.892 2.402-4.896 0.268 0 0 0.719 4.33 4.932 3.441C12.609 12.539 15.252 12.01 17.367 10.707z" fill="#ffffff" data-fill-palette-color="accent"></path></g></svg></g></svg></g><g></g></svg></g></svg></g></svg></g></svg></g><defs></defs></svg><rect width="320" height="360" fill="none" stroke="none" visibility="hidden"></rect></g></svg></g></svg>